<?xml version="1.0" encoding="UTF-8"?>
<svg version="1.1" xmlns="http://www.w3.org/2000/svg" width="64" height="64">
<path d="M0 0 C6.6 0 13.2 0 20 0 C20.66 2.31 21.32 4.62 22 7 C22.66 7 23.32 7 24 7 C24 7.99 24 8.98 24 10 C24.78246094 9.98839844 25.56492188 9.97679687 26.37109375 9.96484375 C27.38300781 9.95582031 28.39492188 9.94679688 29.4375 9.9375 C30.44683594 9.92589844 31.45617188 9.91429687 32.49609375 9.90234375 C35 10 35 10 36 11 C36.10103255 13.79993597 36.13970088 16.57468644 36.1328125 19.375 C36.13376923 20.21466309 36.13472595 21.05432617 36.13571167 21.91943359 C36.13639348 23.69824295 36.13453917 25.47705477 36.13037109 27.25585938 C36.12502283 29.98833776 36.13031605 32.72065176 36.13671875 35.453125 C36.13605797 37.1770837 36.13477681 38.90104229 36.1328125 40.625 C36.13483673 41.44790527 36.13686096 42.27081055 36.13894653 43.11865234 C36.11495054 48.88504946 36.11495054 48.88504946 35 50 C33.44000952 50.09846967 31.87559456 50.12798618 30.3125 50.12939453 C29.31476562 50.13254669 28.31703125 50.13569885 27.2890625 50.13894653 C26.20367187 50.1369223 25.11828125 50.13489807 24 50.1328125 C22.89398438 50.13376923 21.78796875 50.13472595 20.6484375 50.13571167 C18.30468692 50.13639367 15.96093447 50.13453804 13.6171875 50.13037109 C10.01558212 50.12502314 6.41410147 50.13031547 2.8125 50.13671875 C0.54166639 50.13605797 -1.72916714 50.13477682 -4 50.1328125 C-5.08539063 50.13483673 -6.17078125 50.13686096 -7.2890625 50.13894653 C-8.28679688 50.13579437 -9.28453125 50.13264221 -10.3125 50.12939453 C-11.19550781 50.12859894 -12.07851562 50.12780334 -12.98828125 50.12698364 C-15 50 -15 50 -16 49 C-16.10103255 46.20006403 -16.13970088 43.42531356 -16.1328125 40.625 C-16.13376923 39.78533691 -16.13472595 38.94567383 -16.13571167 38.08056641 C-16.13639348 36.30175705 -16.13453917 34.52294523 -16.13037109 32.74414062 C-16.12502283 30.01166224 -16.13031605 27.27934824 -16.13671875 24.546875 C-16.13605797 22.8229163 -16.13477681 21.09895771 -16.1328125 19.375 C-16.13483673 18.55209473 -16.13686096 17.72918945 -16.13894653 16.88134766 C-16.11495054 11.11495054 -16.11495054 11.11495054 -15 10 C-13.14712498 9.92773498 -11.29166122 9.9161878 -9.4375 9.9375 C-8.42558594 9.94652344 -7.41367188 9.95554687 -6.37109375 9.96484375 C-5.19740234 9.98224609 -5.19740234 9.98224609 -4 10 C-4 9.01 -4 8.02 -4 7 C-3.34 7 -2.68 7 -2 7 C-1.34 4.69 -0.68 2.38 0 0 Z M2 3 C1.34786708 5.02463255 1.34786708 5.02463255 1 7 C1.66 7 2.32 7 3 7 C3 7.99 3 8.98 3 10 C7.62 10 12.24 10 17 10 C17 9.01 17 8.02 17 7 C17.66 6.67 18.32 6.34 19 6 C18.67 5.01 18.34 4.02 18 3 C15.26922124 1.63461062 13.04439633 1.86768174 10 1.875 C8.9275 1.87242188 7.855 1.86984375 6.75 1.8671875 C4.03817948 1.8127659 4.03817948 1.8127659 2 3 Z M-14 14 C-14.14547834 16.58951445 -14.18649052 19.04185391 -14.125 21.625 C-14.08375 24.05875 -14.0425 26.4925 -14 29 C-8.72 29 -3.44 29 2 29 C2.103125 27.576875 2.20625 26.15375 2.3125 24.6875 C2.50939337 21.97037153 2.67558839 20.44398326 4.29296875 18.23046875 C6.35499853 16.74410861 7.4776044 16.59633641 10 16.625 C11.0209375 16.61339844 11.0209375 16.61339844 12.0625 16.6015625 C14.61578978 17.12663419 15.46839699 17.90387865 17 20 C17.67953435 23.00343806 17.77644404 25.9149277 18 29 C23.28 29 28.56 29 34 29 C34.04125 26.56625 34.0825 24.1325 34.125 21.625 C34.14320801 20.86010254 34.16141602 20.09520508 34.18017578 19.30712891 C34.1948117 17.53712725 34.09928514 15.76727545 34 14 C31.5937378 11.5937378 31.04892823 11.74798541 27.765625 11.74121094 C26.89131836 11.73490662 26.01701172 11.72860229 25.11621094 11.72210693 C24.17036133 11.7261554 23.22451172 11.73020386 22.25 11.734375 C20.7964209 11.73150482 20.7964209 11.73150482 19.31347656 11.72857666 C17.26236715 11.72721421 15.21124914 11.73091482 13.16015625 11.73925781 C10.01282461 11.74995641 6.8660638 11.73936446 3.71875 11.7265625 C1.7291654 11.72788408 -0.26041884 11.73044645 -2.25 11.734375 C-3.66877441 11.72830231 -3.66877441 11.72830231 -5.11621094 11.72210693 C-5.99051758 11.72841125 -6.86482422 11.73471558 -7.765625 11.74121094 C-8.53680664 11.74280212 -9.30798828 11.74439331 -10.10253906 11.74603271 C-12.24162583 11.8369258 -12.24162583 11.8369258 -14 14 Z M5.0625 21.125 C3.78094104 24.59274776 3.98179049 26.4754286 5 30 C6.88374462 32.28056299 6.88374462 32.28056299 9.9375 32.4375 C13.12707626 32.31322426 13.12707626 32.31322426 14.9375 29.875 C16.21905896 26.40725224 16.01820951 24.5245714 15 21 C13.11625538 18.71943701 13.11625538 18.71943701 10.0625 18.5625 C6.87292374 18.68677574 6.87292374 18.68677574 5.0625 21.125 Z M-14 31 C-14.04125 33.43375 -14.0825 35.8675 -14.125 38.375 C-14.14320801 39.13989746 -14.16141602 39.90479492 -14.18017578 40.69287109 C-14.1948117 42.46287275 -14.09928514 44.23272455 -14 46 C-11.5937378 48.4062622 -11.04892823 48.25201459 -7.765625 48.25878906 C-6.89131836 48.26509338 -6.01701172 48.27139771 -5.11621094 48.27789307 C-4.17036133 48.2738446 -3.22451172 48.26979614 -2.25 48.265625 C-0.7964209 48.26849518 -0.7964209 48.26849518 0.68652344 48.27142334 C2.73763285 48.27278579 4.78875086 48.26908518 6.83984375 48.26074219 C9.98717539 48.25004359 13.1339362 48.26063554 16.28125 48.2734375 C18.2708346 48.27211592 20.26041884 48.26955355 22.25 48.265625 C23.66877441 48.27169769 23.66877441 48.27169769 25.11621094 48.27789307 C26.4276709 48.26843658 26.4276709 48.26843658 27.765625 48.25878906 C28.92239746 48.25640228 28.92239746 48.25640228 30.10253906 48.25396729 C32.24162583 48.1630742 32.24162583 48.1630742 34 46 C34.14547834 43.41048555 34.18649052 40.95814609 34.125 38.375 C34.08375 35.94125 34.0425 33.5075 34 31 C28.72 31 23.44 31 18 31 C18.99 32.65 19.98 34.3 21 36 C21.495 39.96 21.495 39.96 22 44 C14.08 44 6.16 44 -2 44 C0 34 0 34 2 31 C-3.28 31 -8.56 31 -14 31 Z M6 35 C6 35.33 6 35.66 6 36 C8.64 36 11.28 36 14 36 C14 35.67 14 35.34 14 35 C11.36 35 8.72 35 6 35 Z M1 37 C0.67 38.65 0.34 40.3 0 42 C6.6 42 13.2 42 20 42 C19.67 40.35 19.34 38.7 19 37 C18.1646875 37.24363281 18.1646875 37.24363281 17.3125 37.4921875 C14.80771628 38.04222447 12.562519 38.13281256 10 38.125 C8.7315625 38.12886719 8.7315625 38.12886719 7.4375 38.1328125 C5.15301056 38.00833711 3.19008426 37.63877457 1 37 Z " fill="#7445FF" transform="translate(22,5)"/>
<path d="M0 0 C0.66 0.33 1.32 0.66 2 1 C2 2.32 2 3.64 2 5 C-5.92 5 -13.84 5 -22 5 C-21.67 3.68 -21.34 2.36 -21 1 C-20.34 1.33 -19.68 1.66 -19 2 C-17.62451844 2.08308638 -16.24514204 2.10736016 -14.8671875 2.09765625 C-14.06152344 2.09443359 -13.25585938 2.09121094 -12.42578125 2.08789062 C-11.16314453 2.07532227 -11.16314453 2.07532227 -9.875 2.0625 C-8.60076172 2.05573242 -8.60076172 2.05573242 -7.30078125 2.04882812 C-5.20049091 2.03702874 -3.1002367 2.01909306 -1 2 C-0.67 1.34 -0.34 0.68 0 0 Z " fill="#AF2CFF" transform="translate(42,44)"/>
<path d="M0 0 C2.64 0 5.28 0 8 0 C8 2.64 8 5.28 8 8 C6.85073734 7.04578192 5.70569459 6.08647955 4.5625 5.125 C3.92441406 4.59132813 3.28632812 4.05765625 2.62890625 3.5078125 C1 2 1 2 0 0 Z " fill="#A8B9FF" transform="translate(46,19)"/>
<path d="M0 0 C0.99 0 1.98 0 3 0 C2.67 1.32 2.34 2.64 2 4 C1.01 4 0.02 4 -1 4 C-0.67 2.68 -0.34 1.36 0 0 Z " fill="#644CFF" transform="translate(29,25)"/>
</svg>
